<svg xmlns="http://www.w3.org/2000/svg" width="1280" height="720" viewBox="0 0 1280 720">
  <!-- Fundo principal (céu) -->
  <linearGradient id="skyGradient" x1="0%" y1="0%" x2="0%" y2="100%">
    <stop offset="0%" style="stop-color:#1a2a3a;stop-opacity:1" />
    <stop offset="100%" style="stop-color:#2c3e50;stop-opacity:1" />
  </linearGradient>
  <rect width="1280" height="720" fill="url(#skyGradient)" />
  
  <!-- Montanhas ao fundo -->
  <polygon points="0,720 0,400 100,450 200,380 300,430 400,350 500,400 600,380 700,420 800,350 900,380 1000,410 1100,350 1200,380 1280,400 1280,720" 
         fill="#1c2630" />
  
  <!-- Castelo silhueta -->
  <g transform="translate(640, 520) scale(0.8)">
    <rect x="-200" y="-200" width="400" height="200" fill="#0f1620" />
    <rect x="-220" y="-220" width="440" height="20" fill="#0f1620" />
    <rect x="-180" y="-300" width="40" height="100" fill="#0f1620" />
    <rect x="-80" y="-300" width="40" height="100" fill="#0f1620" />
    <rect x="40" y="-300" width="40" height="100" fill="#0f1620" />
    <rect x="140" y="-300" width="40" height="100" fill="#0f1620" />
    <polygon points="-180,-300 -140,-300 -160,-350" fill="#0f1620" />
    <polygon points="-80,-300 -40,-300 -60,-350" fill="#0f1620" />
    <polygon points="40,-300 80,-300 60,-350" fill="#0f1620" />
    <polygon points="140,-300 180,-300 160,-350" fill="#0f1620" />
  </g>
  
  <!-- Nuvens estilizadas -->
  <ellipse cx="200" cy="150" rx="80" ry="40" fill="#3a4a5a" opacity="0.5" />
  <ellipse cx="1080" cy="180" rx="100" ry="50" fill="#3a4a5a" opacity="0.5" />
  <ellipse cx="600" cy="100" rx="120" ry="40" fill="#3a4a5a" opacity="0.5" />
  
  <!-- Estrelas -->
  <circle cx="100" cy="50" r="1" fill="white" opacity="0.8" />
  <circle cx="300" cy="80" r="1" fill="white" opacity="0.8" />
  <circle cx="500" cy="40" r="1" fill="white" opacity="0.8" />
  <circle cx="700" cy="60" r="1" fill="white" opacity="0.8" />
  <circle cx="900" cy="30" r="1" fill="white" opacity="0.8" />
  <circle cx="1100" cy="70" r="1" fill="white" opacity="0.8" />
  <circle cx="150" cy="120" r="1" fill="white" opacity="0.8" />
  <circle cx="350" cy="90" r="1" fill="white" opacity="0.8" />
  <circle cx="550" cy="110" r="1" fill="white" opacity="0.8" />
  <circle cx="750" cy="130" r="1" fill="white" opacity="0.8" />
  <circle cx="950" cy="100" r="1" fill="white" opacity="0.8" />
  <circle cx="1150" cy="140" r="1" fill="white" opacity="0.8" />
</svg> 